<svg width="48" height="46" viewBox="0 0 48 46" fill="none" xmlns="http://www.w3.org/2000/svg">
<path d="M30.5104 23.3438L25.3229 28.8438C25.2291 28.9688 25.0729 29 24.9479 29C24.8229 29 24.6979 28.9688 24.6041 28.875C24.3854 28.6875 24.3854 28.375 24.5729 28.1875L28.9479 23.5H17.1666C16.8854 23.5 16.6666 23.2812 16.6666 23.0312C16.6666 22.7812 16.8854 22.5 17.1666 22.5H28.9479L24.5729 17.8438C24.3854 17.6562 24.3854 17.3438 24.6041 17.1562C24.8229 16.9688 25.1354 16.9688 25.3229 17.1875L30.5104 22.6875C30.6979 22.875 30.6979 23.1562 30.5104 23.3438Z" fill="#072038"/>
<rect x="0.666626" y="1" width="46" height="44" rx="22" stroke="#072038"/>
</svg>
