<svg width="15" height="13" viewBox="0 0 15 13" fill="none" xmlns="http://www.w3.org/2000/svg">
<path d="M8.73633 0.968262L14.2363 6.21826C14.3926 6.37451 14.4863 6.56201 14.4863 6.78076C14.4863 6.96826 14.3926 7.15576 14.2363 7.31201L8.73633 12.562C8.45508 12.8433 7.95508 12.8433 7.67383 12.5308C7.39258 12.2495 7.39258 11.7495 7.70508 11.4683L11.8613 7.53076H1.23633C0.798828 7.53076 0.486328 7.18701 0.486328 6.78076C0.486328 6.34326 0.798828 6.03076 1.23633 6.03076H11.8613L7.70508 2.06201C7.39258 1.78076 7.39258 1.28076 7.67383 0.999512C7.95508 0.687012 8.42383 0.687012 8.73633 0.968262Z" fill="#FD7762"/>
</svg>
